<mxfile host="app.diagrams.net" modified="2022-06-09T07:13:31.625Z" agent="5.0 (Windows NT 10.0; Win64; x64) AppleWebKit/537.36 (KHTML, like Gecko) Chrome/102.0.0.0 Safari/537.36" etag="9WDlgn6NRjOuTQtDgXRS" version="19.0.0" type="github">
  <diagram id="YbOj2m_h4Rlv5uN7Jlbm" name="Page-1">
    <mxGraphModel dx="2249" dy="762" grid="1" gridSize="10" guides="1" tooltips="1" connect="1" arrows="1" fold="1" page="1" pageScale="1" pageWidth="827" pageHeight="1169" math="0" shadow="0">
      <root>
        <mxCell id="0" />
        <mxCell id="1" parent="0" />
        <mxCell id="3qJPJ0p830aMWVGbC03R-45" value="" style="rounded=0;whiteSpace=wrap;html=1;strokeColor=default;fillColor=none;gradientColor=none;dashed=1;" vertex="1" parent="1">
          <mxGeometry x="354" y="1160" width="656" height="160" as="geometry" />
        </mxCell>
        <mxCell id="3qJPJ0p830aMWVGbC03R-31" value="" style="rounded=0;whiteSpace=wrap;html=1;strokeColor=default;fillColor=none;gradientColor=none;dashed=1;" vertex="1" parent="1">
          <mxGeometry x="354" y="940" width="656" height="140" as="geometry" />
        </mxCell>
        <mxCell id="3qJPJ0p830aMWVGbC03R-29" value="" style="rounded=0;whiteSpace=wrap;html=1;strokeColor=default;fillColor=none;gradientColor=none;" vertex="1" parent="1">
          <mxGeometry x="-620" y="880" width="650" height="460" as="geometry" />
        </mxCell>
        <mxCell id="3qJPJ0p830aMWVGbC03R-14" value="" style="rounded=0;whiteSpace=wrap;html=1;gradientColor=none;fillColor=none;dashed=1;strokeColor=default;" vertex="1" parent="1">
          <mxGeometry x="-480" y="950" width="480" height="190" as="geometry" />
        </mxCell>
        <mxCell id="xVNtesGDLxIq_oZXXqDL-6" style="edgeStyle=orthogonalEdgeStyle;rounded=0;orthogonalLoop=1;jettySize=auto;html=1;" parent="1" source="xVNtesGDLxIq_oZXXqDL-1" target="xVNtesGDLxIq_oZXXqDL-3" edge="1">
          <mxGeometry relative="1" as="geometry" />
        </mxCell>
        <mxCell id="xVNtesGDLxIq_oZXXqDL-1" value="创建灰度规则(版本级)" style="rounded=1;whiteSpace=wrap;html=1;" parent="1" vertex="1">
          <mxGeometry x="95" y="40" width="120" height="40" as="geometry" />
        </mxCell>
        <mxCell id="xVNtesGDLxIq_oZXXqDL-15" style="edgeStyle=orthogonalEdgeStyle;rounded=0;orthogonalLoop=1;jettySize=auto;html=1;" parent="1" source="xVNtesGDLxIq_oZXXqDL-2" target="xVNtesGDLxIq_oZXXqDL-13" edge="1">
          <mxGeometry relative="1" as="geometry" />
        </mxCell>
        <mxCell id="xVNtesGDLxIq_oZXXqDL-2" value="获取分组Ip列表" style="rounded=1;whiteSpace=wrap;html=1;" parent="1" vertex="1">
          <mxGeometry x="95" y="360" width="120" height="40" as="geometry" />
        </mxCell>
        <mxCell id="xVNtesGDLxIq_oZXXqDL-4" style="edgeStyle=orthogonalEdgeStyle;rounded=0;orthogonalLoop=1;jettySize=auto;html=1;entryX=0.5;entryY=0;entryDx=0;entryDy=0;" parent="1" source="xVNtesGDLxIq_oZXXqDL-3" target="xVNtesGDLxIq_oZXXqDL-2" edge="1">
          <mxGeometry relative="1" as="geometry" />
        </mxCell>
        <mxCell id="xVNtesGDLxIq_oZXXqDL-5" value="否" style="edgeLabel;html=1;align=center;verticalAlign=middle;resizable=0;points=[];" parent="xVNtesGDLxIq_oZXXqDL-4" vertex="1" connectable="0">
          <mxGeometry x="0.21" y="-2" relative="1" as="geometry">
            <mxPoint x="2" y="-12" as="offset" />
          </mxGeometry>
        </mxCell>
        <mxCell id="xVNtesGDLxIq_oZXXqDL-10" style="edgeStyle=orthogonalEdgeStyle;rounded=0;orthogonalLoop=1;jettySize=auto;html=1;" parent="1" source="xVNtesGDLxIq_oZXXqDL-3" target="xVNtesGDLxIq_oZXXqDL-7" edge="1">
          <mxGeometry relative="1" as="geometry" />
        </mxCell>
        <mxCell id="xVNtesGDLxIq_oZXXqDL-11" value="是" style="edgeLabel;html=1;align=center;verticalAlign=middle;resizable=0;points=[];" parent="xVNtesGDLxIq_oZXXqDL-10" vertex="1" connectable="0">
          <mxGeometry x="-0.49" y="1" relative="1" as="geometry">
            <mxPoint as="offset" />
          </mxGeometry>
        </mxCell>
        <mxCell id="xVNtesGDLxIq_oZXXqDL-3" value="是否公共配置" style="rhombus;whiteSpace=wrap;html=1;" parent="1" vertex="1">
          <mxGeometry x="100" y="120" width="110" height="80" as="geometry" />
        </mxCell>
        <mxCell id="xVNtesGDLxIq_oZXXqDL-9" style="edgeStyle=orthogonalEdgeStyle;rounded=0;orthogonalLoop=1;jettySize=auto;html=1;" parent="1" source="xVNtesGDLxIq_oZXXqDL-7" target="xVNtesGDLxIq_oZXXqDL-8" edge="1">
          <mxGeometry relative="1" as="geometry" />
        </mxCell>
        <mxCell id="xVNtesGDLxIq_oZXXqDL-7" value="获取App列表" style="rounded=1;whiteSpace=wrap;html=1;" parent="1" vertex="1">
          <mxGeometry x="-70" y="210" width="120" height="40" as="geometry" />
        </mxCell>
        <mxCell id="xVNtesGDLxIq_oZXXqDL-12" style="edgeStyle=orthogonalEdgeStyle;rounded=0;orthogonalLoop=1;jettySize=auto;html=1;entryX=0.5;entryY=0;entryDx=0;entryDy=0;" parent="1" source="xVNtesGDLxIq_oZXXqDL-8" target="xVNtesGDLxIq_oZXXqDL-2" edge="1">
          <mxGeometry relative="1" as="geometry" />
        </mxCell>
        <mxCell id="xVNtesGDLxIq_oZXXqDL-8" value="选择灰度appId" style="rounded=1;whiteSpace=wrap;html=1;" parent="1" vertex="1">
          <mxGeometry x="-70" y="290" width="120" height="40" as="geometry" />
        </mxCell>
        <mxCell id="xVNtesGDLxIq_oZXXqDL-54" style="edgeStyle=orthogonalEdgeStyle;rounded=0;orthogonalLoop=1;jettySize=auto;html=1;entryX=0.5;entryY=0;entryDx=0;entryDy=0;" parent="1" source="xVNtesGDLxIq_oZXXqDL-13" target="xVNtesGDLxIq_oZXXqDL-53" edge="1">
          <mxGeometry relative="1" as="geometry" />
        </mxCell>
        <mxCell id="xVNtesGDLxIq_oZXXqDL-13" value="选择需要灰度IP" style="rounded=1;whiteSpace=wrap;html=1;" parent="1" vertex="1">
          <mxGeometry x="95" y="450" width="120" height="40" as="geometry" />
        </mxCell>
        <mxCell id="xVNtesGDLxIq_oZXXqDL-18" style="edgeStyle=orthogonalEdgeStyle;rounded=0;orthogonalLoop=1;jettySize=auto;html=1;entryX=0.5;entryY=0;entryDx=0;entryDy=0;" parent="1" source="xVNtesGDLxIq_oZXXqDL-16" target="xVNtesGDLxIq_oZXXqDL-17" edge="1">
          <mxGeometry relative="1" as="geometry" />
        </mxCell>
        <mxCell id="xVNtesGDLxIq_oZXXqDL-16" value="创建灰度配置(配置级)" style="rounded=1;whiteSpace=wrap;html=1;" parent="1" vertex="1">
          <mxGeometry x="-500" y="20" width="120" height="40" as="geometry" />
        </mxCell>
        <mxCell id="xVNtesGDLxIq_oZXXqDL-21" style="edgeStyle=orthogonalEdgeStyle;rounded=0;orthogonalLoop=1;jettySize=auto;html=1;" parent="1" source="xVNtesGDLxIq_oZXXqDL-17" target="xVNtesGDLxIq_oZXXqDL-20" edge="1">
          <mxGeometry relative="1" as="geometry" />
        </mxCell>
        <mxCell id="xVNtesGDLxIq_oZXXqDL-17" value="根据实时配置初始灰度配置和灰度发布配置" style="rounded=1;whiteSpace=wrap;html=1;" parent="1" vertex="1">
          <mxGeometry x="-500" y="110" width="120" height="50" as="geometry" />
        </mxCell>
        <mxCell id="xVNtesGDLxIq_oZXXqDL-90" style="edgeStyle=orthogonalEdgeStyle;rounded=0;orthogonalLoop=1;jettySize=auto;html=1;entryX=0;entryY=0.5;entryDx=0;entryDy=0;" parent="1" source="xVNtesGDLxIq_oZXXqDL-20" target="xVNtesGDLxIq_oZXXqDL-88" edge="1">
          <mxGeometry relative="1" as="geometry" />
        </mxCell>
        <mxCell id="dYjJuQr_pZlBkOYd_q1R-5" style="edgeStyle=orthogonalEdgeStyle;rounded=0;orthogonalLoop=1;jettySize=auto;html=1;entryX=0.5;entryY=0;entryDx=0;entryDy=0;exitX=0.5;exitY=1;exitDx=0;exitDy=0;" parent="1" source="xVNtesGDLxIq_oZXXqDL-20" target="dYjJuQr_pZlBkOYd_q1R-2" edge="1">
          <mxGeometry relative="1" as="geometry" />
        </mxCell>
        <mxCell id="dYjJuQr_pZlBkOYd_q1R-6" style="edgeStyle=orthogonalEdgeStyle;rounded=0;orthogonalLoop=1;jettySize=auto;html=1;" parent="1" source="xVNtesGDLxIq_oZXXqDL-20" target="dYjJuQr_pZlBkOYd_q1R-3" edge="1">
          <mxGeometry relative="1" as="geometry" />
        </mxCell>
        <mxCell id="dYjJuQr_pZlBkOYd_q1R-7" style="edgeStyle=orthogonalEdgeStyle;rounded=0;orthogonalLoop=1;jettySize=auto;html=1;exitX=0.5;exitY=1;exitDx=0;exitDy=0;" parent="1" source="xVNtesGDLxIq_oZXXqDL-20" target="dYjJuQr_pZlBkOYd_q1R-4" edge="1">
          <mxGeometry relative="1" as="geometry" />
        </mxCell>
        <mxCell id="xVNtesGDLxIq_oZXXqDL-20" value="修改灰度配置" style="rounded=1;whiteSpace=wrap;html=1;" parent="1" vertex="1">
          <mxGeometry x="-500" y="200" width="120" height="40" as="geometry" />
        </mxCell>
        <mxCell id="xVNtesGDLxIq_oZXXqDL-26" style="edgeStyle=orthogonalEdgeStyle;rounded=0;orthogonalLoop=1;jettySize=auto;html=1;entryX=0.5;entryY=0;entryDx=0;entryDy=0;" parent="1" source="xVNtesGDLxIq_oZXXqDL-24" target="xVNtesGDLxIq_oZXXqDL-25" edge="1">
          <mxGeometry relative="1" as="geometry" />
        </mxCell>
        <mxCell id="xVNtesGDLxIq_oZXXqDL-24" value="下载配置" style="rounded=1;whiteSpace=wrap;html=1;" parent="1" vertex="1">
          <mxGeometry x="590" y="30" width="110" height="40" as="geometry" />
        </mxCell>
        <mxCell id="xVNtesGDLxIq_oZXXqDL-28" style="edgeStyle=orthogonalEdgeStyle;rounded=0;orthogonalLoop=1;jettySize=auto;html=1;entryX=0.5;entryY=0;entryDx=0;entryDy=0;" parent="1" source="xVNtesGDLxIq_oZXXqDL-25" target="xVNtesGDLxIq_oZXXqDL-27" edge="1">
          <mxGeometry relative="1" as="geometry" />
        </mxCell>
        <mxCell id="xVNtesGDLxIq_oZXXqDL-25" value="获取来源IP" style="rounded=1;whiteSpace=wrap;html=1;" parent="1" vertex="1">
          <mxGeometry x="590" y="120" width="110" height="40" as="geometry" />
        </mxCell>
        <mxCell id="xVNtesGDLxIq_oZXXqDL-32" style="edgeStyle=orthogonalEdgeStyle;rounded=0;orthogonalLoop=1;jettySize=auto;html=1;entryX=0.423;entryY=0.075;entryDx=0;entryDy=0;entryPerimeter=0;" parent="1" source="xVNtesGDLxIq_oZXXqDL-27" target="xVNtesGDLxIq_oZXXqDL-29" edge="1">
          <mxGeometry relative="1" as="geometry" />
        </mxCell>
        <mxCell id="xVNtesGDLxIq_oZXXqDL-33" value="否" style="edgeLabel;html=1;align=center;verticalAlign=middle;resizable=0;points=[];" parent="xVNtesGDLxIq_oZXXqDL-32" vertex="1" connectable="0">
          <mxGeometry x="-0.5559" relative="1" as="geometry">
            <mxPoint as="offset" />
          </mxGeometry>
        </mxCell>
        <mxCell id="xVNtesGDLxIq_oZXXqDL-34" style="edgeStyle=orthogonalEdgeStyle;rounded=0;orthogonalLoop=1;jettySize=auto;html=1;" parent="1" source="xVNtesGDLxIq_oZXXqDL-27" target="xVNtesGDLxIq_oZXXqDL-31" edge="1">
          <mxGeometry relative="1" as="geometry" />
        </mxCell>
        <mxCell id="xVNtesGDLxIq_oZXXqDL-35" value="是" style="edgeLabel;html=1;align=center;verticalAlign=middle;resizable=0;points=[];" parent="xVNtesGDLxIq_oZXXqDL-34" vertex="1" connectable="0">
          <mxGeometry x="-0.2578" relative="1" as="geometry">
            <mxPoint as="offset" />
          </mxGeometry>
        </mxCell>
        <mxCell id="xVNtesGDLxIq_oZXXqDL-27" value="是否灰度IP" style="rhombus;whiteSpace=wrap;html=1;" parent="1" vertex="1">
          <mxGeometry x="590" y="200" width="110" height="80" as="geometry" />
        </mxCell>
        <mxCell id="xVNtesGDLxIq_oZXXqDL-47" style="edgeStyle=orthogonalEdgeStyle;rounded=0;orthogonalLoop=1;jettySize=auto;html=1;entryX=0.5;entryY=0;entryDx=0;entryDy=0;" parent="1" source="xVNtesGDLxIq_oZXXqDL-29" target="xVNtesGDLxIq_oZXXqDL-46" edge="1">
          <mxGeometry relative="1" as="geometry" />
        </mxCell>
        <mxCell id="xVNtesGDLxIq_oZXXqDL-29" value="返回实时配置" style="rounded=1;whiteSpace=wrap;html=1;" parent="1" vertex="1">
          <mxGeometry x="420" y="580" width="120" height="40" as="geometry" />
        </mxCell>
        <mxCell id="xVNtesGDLxIq_oZXXqDL-48" style="edgeStyle=orthogonalEdgeStyle;rounded=0;orthogonalLoop=1;jettySize=auto;html=1;" parent="1" source="xVNtesGDLxIq_oZXXqDL-30" target="xVNtesGDLxIq_oZXXqDL-46" edge="1">
          <mxGeometry relative="1" as="geometry" />
        </mxCell>
        <mxCell id="xVNtesGDLxIq_oZXXqDL-30" value="返回发布灰度配置" style="rounded=1;whiteSpace=wrap;html=1;" parent="1" vertex="1">
          <mxGeometry x="585" y="580" width="120" height="40" as="geometry" />
        </mxCell>
        <mxCell id="xVNtesGDLxIq_oZXXqDL-37" style="edgeStyle=orthogonalEdgeStyle;rounded=0;orthogonalLoop=1;jettySize=auto;html=1;" parent="1" source="xVNtesGDLxIq_oZXXqDL-31" target="xVNtesGDLxIq_oZXXqDL-36" edge="1">
          <mxGeometry relative="1" as="geometry" />
        </mxCell>
        <mxCell id="xVNtesGDLxIq_oZXXqDL-31" value="获取配置名" style="rounded=1;whiteSpace=wrap;html=1;" parent="1" vertex="1">
          <mxGeometry x="590" y="340" width="110" height="40" as="geometry" />
        </mxCell>
        <mxCell id="xVNtesGDLxIq_oZXXqDL-38" style="edgeStyle=orthogonalEdgeStyle;rounded=0;orthogonalLoop=1;jettySize=auto;html=1;entryX=0.5;entryY=0;entryDx=0;entryDy=0;" parent="1" source="xVNtesGDLxIq_oZXXqDL-36" target="xVNtesGDLxIq_oZXXqDL-30" edge="1">
          <mxGeometry relative="1" as="geometry" />
        </mxCell>
        <mxCell id="xVNtesGDLxIq_oZXXqDL-41" value="是" style="edgeLabel;html=1;align=center;verticalAlign=middle;resizable=0;points=[];" parent="xVNtesGDLxIq_oZXXqDL-38" vertex="1" connectable="0">
          <mxGeometry x="0.723" relative="1" as="geometry">
            <mxPoint y="-29" as="offset" />
          </mxGeometry>
        </mxCell>
        <mxCell id="xVNtesGDLxIq_oZXXqDL-39" style="edgeStyle=orthogonalEdgeStyle;rounded=0;orthogonalLoop=1;jettySize=auto;html=1;entryX=0.422;entryY=0.065;entryDx=0;entryDy=0;entryPerimeter=0;" parent="1" source="xVNtesGDLxIq_oZXXqDL-36" target="xVNtesGDLxIq_oZXXqDL-29" edge="1">
          <mxGeometry relative="1" as="geometry" />
        </mxCell>
        <mxCell id="xVNtesGDLxIq_oZXXqDL-40" value="否" style="edgeLabel;html=1;align=center;verticalAlign=middle;resizable=0;points=[];" parent="xVNtesGDLxIq_oZXXqDL-39" vertex="1" connectable="0">
          <mxGeometry x="-0.6017" y="2" relative="1" as="geometry">
            <mxPoint as="offset" />
          </mxGeometry>
        </mxCell>
        <mxCell id="xVNtesGDLxIq_oZXXqDL-36" value="是否存在灰度配置" style="rhombus;whiteSpace=wrap;html=1;" parent="1" vertex="1">
          <mxGeometry x="590" y="420" width="110" height="80" as="geometry" />
        </mxCell>
        <mxCell id="xVNtesGDLxIq_oZXXqDL-57" style="edgeStyle=orthogonalEdgeStyle;rounded=0;orthogonalLoop=1;jettySize=auto;html=1;entryX=0.5;entryY=0;entryDx=0;entryDy=0;" parent="1" source="xVNtesGDLxIq_oZXXqDL-42" target="xVNtesGDLxIq_oZXXqDL-43" edge="1">
          <mxGeometry relative="1" as="geometry" />
        </mxCell>
        <mxCell id="xVNtesGDLxIq_oZXXqDL-42" value="生成快照" style="rounded=1;whiteSpace=wrap;html=1;" parent="1" vertex="1">
          <mxGeometry x="1341" y="40" width="120" height="40" as="geometry" />
        </mxCell>
        <mxCell id="xVNtesGDLxIq_oZXXqDL-58" style="edgeStyle=orthogonalEdgeStyle;rounded=0;orthogonalLoop=1;jettySize=auto;html=1;entryX=0.5;entryY=0;entryDx=0;entryDy=0;" parent="1" source="xVNtesGDLxIq_oZXXqDL-43" target="xVNtesGDLxIq_oZXXqDL-50" edge="1">
          <mxGeometry relative="1" as="geometry" />
        </mxCell>
        <mxCell id="xVNtesGDLxIq_oZXXqDL-43" value="逐个文件创建实时配置快照" style="rounded=1;whiteSpace=wrap;html=1;" parent="1" vertex="1">
          <mxGeometry x="1341" y="140" width="120" height="40" as="geometry" />
        </mxCell>
        <mxCell id="xVNtesGDLxIq_oZXXqDL-46" value="记录下载配置信息" style="rounded=1;whiteSpace=wrap;html=1;" parent="1" vertex="1">
          <mxGeometry x="500" y="700" width="120" height="40" as="geometry" />
        </mxCell>
        <mxCell id="xVNtesGDLxIq_oZXXqDL-59" style="edgeStyle=orthogonalEdgeStyle;rounded=0;orthogonalLoop=1;jettySize=auto;html=1;" parent="1" source="xVNtesGDLxIq_oZXXqDL-50" target="xVNtesGDLxIq_oZXXqDL-51" edge="1">
          <mxGeometry relative="1" as="geometry" />
        </mxCell>
        <mxCell id="xVNtesGDLxIq_oZXXqDL-64" value="是" style="edgeLabel;html=1;align=center;verticalAlign=middle;resizable=0;points=[];" parent="xVNtesGDLxIq_oZXXqDL-59" vertex="1" connectable="0">
          <mxGeometry x="-0.8024" relative="1" as="geometry">
            <mxPoint y="27" as="offset" />
          </mxGeometry>
        </mxCell>
        <mxCell id="xVNtesGDLxIq_oZXXqDL-62" style="edgeStyle=orthogonalEdgeStyle;rounded=0;orthogonalLoop=1;jettySize=auto;html=1;entryX=1;entryY=0.5;entryDx=0;entryDy=0;exitX=1;exitY=0.5;exitDx=0;exitDy=0;" parent="1" source="xVNtesGDLxIq_oZXXqDL-50" target="xVNtesGDLxIq_oZXXqDL-56" edge="1">
          <mxGeometry relative="1" as="geometry">
            <Array as="points">
              <mxPoint x="1500" y="275" />
              <mxPoint x="1500" y="610" />
            </Array>
          </mxGeometry>
        </mxCell>
        <mxCell id="xVNtesGDLxIq_oZXXqDL-63" value="否" style="edgeLabel;html=1;align=center;verticalAlign=middle;resizable=0;points=[];" parent="xVNtesGDLxIq_oZXXqDL-62" vertex="1" connectable="0">
          <mxGeometry x="0.1393" y="4" relative="1" as="geometry">
            <mxPoint as="offset" />
          </mxGeometry>
        </mxCell>
        <mxCell id="xVNtesGDLxIq_oZXXqDL-50" value="是否存在灰度配置" style="rhombus;whiteSpace=wrap;html=1;" parent="1" vertex="1">
          <mxGeometry x="1345" y="235" width="110" height="80" as="geometry" />
        </mxCell>
        <mxCell id="xVNtesGDLxIq_oZXXqDL-60" style="edgeStyle=orthogonalEdgeStyle;rounded=0;orthogonalLoop=1;jettySize=auto;html=1;" parent="1" source="xVNtesGDLxIq_oZXXqDL-51" target="xVNtesGDLxIq_oZXXqDL-55" edge="1">
          <mxGeometry relative="1" as="geometry" />
        </mxCell>
        <mxCell id="xVNtesGDLxIq_oZXXqDL-51" value="创建灰度配置快照(快照版本+gray后缀)" style="rounded=1;whiteSpace=wrap;html=1;" parent="1" vertex="1">
          <mxGeometry x="1340" y="400" width="120" height="40" as="geometry" />
        </mxCell>
        <mxCell id="xVNtesGDLxIq_oZXXqDL-53" value="保存灰度规则" style="rounded=1;whiteSpace=wrap;html=1;" parent="1" vertex="1">
          <mxGeometry x="95" y="540" width="120" height="40" as="geometry" />
        </mxCell>
        <mxCell id="xVNtesGDLxIq_oZXXqDL-61" style="edgeStyle=orthogonalEdgeStyle;rounded=0;orthogonalLoop=1;jettySize=auto;html=1;entryX=0.5;entryY=0;entryDx=0;entryDy=0;" parent="1" source="xVNtesGDLxIq_oZXXqDL-55" target="xVNtesGDLxIq_oZXXqDL-56" edge="1">
          <mxGeometry relative="1" as="geometry" />
        </mxCell>
        <mxCell id="xVNtesGDLxIq_oZXXqDL-55" value="存储灰度配置快照+灰度规则" style="rounded=1;whiteSpace=wrap;html=1;" parent="1" vertex="1">
          <mxGeometry x="1340" y="480" width="120" height="40" as="geometry" />
        </mxCell>
        <mxCell id="xVNtesGDLxIq_oZXXqDL-56" value="结束" style="rounded=1;whiteSpace=wrap;html=1;" parent="1" vertex="1">
          <mxGeometry x="1340" y="590" width="120" height="40" as="geometry" />
        </mxCell>
        <mxCell id="xVNtesGDLxIq_oZXXqDL-65" style="edgeStyle=orthogonalEdgeStyle;rounded=0;orthogonalLoop=1;jettySize=auto;html=1;entryX=0.5;entryY=0;entryDx=0;entryDy=0;" parent="1" source="xVNtesGDLxIq_oZXXqDL-66" target="xVNtesGDLxIq_oZXXqDL-68" edge="1">
          <mxGeometry relative="1" as="geometry" />
        </mxCell>
        <mxCell id="xVNtesGDLxIq_oZXXqDL-66" value="下载快照配置" style="rounded=1;whiteSpace=wrap;html=1;" parent="1" vertex="1">
          <mxGeometry x="1790" y="40" width="110" height="40" as="geometry" />
        </mxCell>
        <mxCell id="xVNtesGDLxIq_oZXXqDL-67" style="edgeStyle=orthogonalEdgeStyle;rounded=0;orthogonalLoop=1;jettySize=auto;html=1;entryX=0.5;entryY=0;entryDx=0;entryDy=0;" parent="1" source="xVNtesGDLxIq_oZXXqDL-68" target="xVNtesGDLxIq_oZXXqDL-73" edge="1">
          <mxGeometry relative="1" as="geometry" />
        </mxCell>
        <mxCell id="xVNtesGDLxIq_oZXXqDL-68" value="获取来源IP" style="rounded=1;whiteSpace=wrap;html=1;" parent="1" vertex="1">
          <mxGeometry x="1790" y="130" width="110" height="40" as="geometry" />
        </mxCell>
        <mxCell id="xVNtesGDLxIq_oZXXqDL-69" style="edgeStyle=orthogonalEdgeStyle;rounded=0;orthogonalLoop=1;jettySize=auto;html=1;entryX=0.423;entryY=0.075;entryDx=0;entryDy=0;entryPerimeter=0;" parent="1" source="xVNtesGDLxIq_oZXXqDL-73" target="xVNtesGDLxIq_oZXXqDL-75" edge="1">
          <mxGeometry relative="1" as="geometry" />
        </mxCell>
        <mxCell id="xVNtesGDLxIq_oZXXqDL-70" value="否" style="edgeLabel;html=1;align=center;verticalAlign=middle;resizable=0;points=[];" parent="xVNtesGDLxIq_oZXXqDL-69" vertex="1" connectable="0">
          <mxGeometry x="-0.5559" relative="1" as="geometry">
            <mxPoint as="offset" />
          </mxGeometry>
        </mxCell>
        <mxCell id="xVNtesGDLxIq_oZXXqDL-71" style="edgeStyle=orthogonalEdgeStyle;rounded=0;orthogonalLoop=1;jettySize=auto;html=1;" parent="1" source="xVNtesGDLxIq_oZXXqDL-73" target="xVNtesGDLxIq_oZXXqDL-79" edge="1">
          <mxGeometry relative="1" as="geometry" />
        </mxCell>
        <mxCell id="xVNtesGDLxIq_oZXXqDL-72" value="是" style="edgeLabel;html=1;align=center;verticalAlign=middle;resizable=0;points=[];" parent="xVNtesGDLxIq_oZXXqDL-71" vertex="1" connectable="0">
          <mxGeometry x="-0.2578" relative="1" as="geometry">
            <mxPoint as="offset" />
          </mxGeometry>
        </mxCell>
        <mxCell id="xVNtesGDLxIq_oZXXqDL-73" value="是否灰度IP&lt;br&gt;(快照灰度规则)" style="rhombus;whiteSpace=wrap;html=1;" parent="1" vertex="1">
          <mxGeometry x="1790" y="210" width="110" height="80" as="geometry" />
        </mxCell>
        <mxCell id="xVNtesGDLxIq_oZXXqDL-74" style="edgeStyle=orthogonalEdgeStyle;rounded=0;orthogonalLoop=1;jettySize=auto;html=1;entryX=0.5;entryY=0;entryDx=0;entryDy=0;" parent="1" source="xVNtesGDLxIq_oZXXqDL-75" target="xVNtesGDLxIq_oZXXqDL-85" edge="1">
          <mxGeometry relative="1" as="geometry" />
        </mxCell>
        <mxCell id="xVNtesGDLxIq_oZXXqDL-75" value="返回快照配置" style="rounded=1;whiteSpace=wrap;html=1;" parent="1" vertex="1">
          <mxGeometry x="1620" y="590" width="120" height="40" as="geometry" />
        </mxCell>
        <mxCell id="xVNtesGDLxIq_oZXXqDL-76" style="edgeStyle=orthogonalEdgeStyle;rounded=0;orthogonalLoop=1;jettySize=auto;html=1;" parent="1" source="xVNtesGDLxIq_oZXXqDL-77" target="xVNtesGDLxIq_oZXXqDL-85" edge="1">
          <mxGeometry relative="1" as="geometry" />
        </mxCell>
        <mxCell id="xVNtesGDLxIq_oZXXqDL-77" value="返回gray快照配置" style="rounded=1;whiteSpace=wrap;html=1;" parent="1" vertex="1">
          <mxGeometry x="1785" y="590" width="120" height="40" as="geometry" />
        </mxCell>
        <mxCell id="xVNtesGDLxIq_oZXXqDL-78" style="edgeStyle=orthogonalEdgeStyle;rounded=0;orthogonalLoop=1;jettySize=auto;html=1;" parent="1" source="xVNtesGDLxIq_oZXXqDL-79" target="xVNtesGDLxIq_oZXXqDL-84" edge="1">
          <mxGeometry relative="1" as="geometry" />
        </mxCell>
        <mxCell id="xVNtesGDLxIq_oZXXqDL-79" value="获取配置名和快照名" style="rounded=1;whiteSpace=wrap;html=1;" parent="1" vertex="1">
          <mxGeometry x="1790" y="350" width="110" height="40" as="geometry" />
        </mxCell>
        <mxCell id="xVNtesGDLxIq_oZXXqDL-80" style="edgeStyle=orthogonalEdgeStyle;rounded=0;orthogonalLoop=1;jettySize=auto;html=1;entryX=0.5;entryY=0;entryDx=0;entryDy=0;" parent="1" source="xVNtesGDLxIq_oZXXqDL-84" target="xVNtesGDLxIq_oZXXqDL-77" edge="1">
          <mxGeometry relative="1" as="geometry" />
        </mxCell>
        <mxCell id="xVNtesGDLxIq_oZXXqDL-81" value="是" style="edgeLabel;html=1;align=center;verticalAlign=middle;resizable=0;points=[];" parent="xVNtesGDLxIq_oZXXqDL-80" vertex="1" connectable="0">
          <mxGeometry x="0.723" relative="1" as="geometry">
            <mxPoint y="-29" as="offset" />
          </mxGeometry>
        </mxCell>
        <mxCell id="xVNtesGDLxIq_oZXXqDL-82" style="edgeStyle=orthogonalEdgeStyle;rounded=0;orthogonalLoop=1;jettySize=auto;html=1;entryX=0.422;entryY=0.065;entryDx=0;entryDy=0;entryPerimeter=0;" parent="1" source="xVNtesGDLxIq_oZXXqDL-84" target="xVNtesGDLxIq_oZXXqDL-75" edge="1">
          <mxGeometry relative="1" as="geometry" />
        </mxCell>
        <mxCell id="xVNtesGDLxIq_oZXXqDL-83" value="否" style="edgeLabel;html=1;align=center;verticalAlign=middle;resizable=0;points=[];" parent="xVNtesGDLxIq_oZXXqDL-82" vertex="1" connectable="0">
          <mxGeometry x="-0.6017" y="2" relative="1" as="geometry">
            <mxPoint as="offset" />
          </mxGeometry>
        </mxCell>
        <mxCell id="xVNtesGDLxIq_oZXXqDL-84" value="是否存在灰度配置快照" style="rhombus;whiteSpace=wrap;html=1;" parent="1" vertex="1">
          <mxGeometry x="1790" y="430" width="110" height="80" as="geometry" />
        </mxCell>
        <mxCell id="xVNtesGDLxIq_oZXXqDL-85" value="记录下载配置信息" style="rounded=1;whiteSpace=wrap;html=1;" parent="1" vertex="1">
          <mxGeometry x="1700" y="710" width="120" height="40" as="geometry" />
        </mxCell>
        <mxCell id="xVNtesGDLxIq_oZXXqDL-88" value="添加灰度配置历史" style="shape=process;whiteSpace=wrap;html=1;backgroundOutline=1;" parent="1" vertex="1">
          <mxGeometry x="-300" y="190" width="120" height="60" as="geometry" />
        </mxCell>
        <mxCell id="IOC5wvjOlO7gnGzA3t1X-4" style="edgeStyle=orthogonalEdgeStyle;rounded=0;orthogonalLoop=1;jettySize=auto;html=1;entryX=0.5;entryY=0;entryDx=0;entryDy=0;" parent="1" source="dYjJuQr_pZlBkOYd_q1R-2" target="IOC5wvjOlO7gnGzA3t1X-2" edge="1">
          <mxGeometry relative="1" as="geometry">
            <mxPoint x="-610" y="480" as="targetPoint" />
            <Array as="points">
              <mxPoint x="-610" y="450" />
              <mxPoint x="-440" y="450" />
            </Array>
          </mxGeometry>
        </mxCell>
        <mxCell id="dYjJuQr_pZlBkOYd_q1R-2" value="灰度发布" style="rounded=1;whiteSpace=wrap;html=1;" parent="1" vertex="1">
          <mxGeometry x="-670" y="380" width="120" height="40" as="geometry" />
        </mxCell>
        <mxCell id="IOC5wvjOlO7gnGzA3t1X-5" style="edgeStyle=orthogonalEdgeStyle;rounded=0;orthogonalLoop=1;jettySize=auto;html=1;" parent="1" source="dYjJuQr_pZlBkOYd_q1R-3" target="IOC5wvjOlO7gnGzA3t1X-2" edge="1">
          <mxGeometry relative="1" as="geometry" />
        </mxCell>
        <mxCell id="dYjJuQr_pZlBkOYd_q1R-3" value="全量发布" style="rounded=1;whiteSpace=wrap;html=1;" parent="1" vertex="1">
          <mxGeometry x="-500" y="380" width="120" height="40" as="geometry" />
        </mxCell>
        <mxCell id="IOC5wvjOlO7gnGzA3t1X-6" style="edgeStyle=orthogonalEdgeStyle;rounded=0;orthogonalLoop=1;jettySize=auto;html=1;entryX=0.5;entryY=0;entryDx=0;entryDy=0;" parent="1" source="dYjJuQr_pZlBkOYd_q1R-4" target="IOC5wvjOlO7gnGzA3t1X-2" edge="1">
          <mxGeometry relative="1" as="geometry">
            <mxPoint x="-250" y="480" as="targetPoint" />
            <Array as="points">
              <mxPoint x="-250" y="450" />
              <mxPoint x="-440" y="450" />
            </Array>
          </mxGeometry>
        </mxCell>
        <mxCell id="dYjJuQr_pZlBkOYd_q1R-4" value="取消灰度" style="rounded=1;whiteSpace=wrap;html=1;" parent="1" vertex="1">
          <mxGeometry x="-310" y="380" width="120" height="40" as="geometry" />
        </mxCell>
        <mxCell id="dYjJuQr_pZlBkOYd_q1R-9" value="写入灰度发布配置表" style="rounded=1;whiteSpace=wrap;html=1;" parent="1" vertex="1">
          <mxGeometry x="-670" y="620" width="120" height="40" as="geometry" />
        </mxCell>
        <mxCell id="dYjJuQr_pZlBkOYd_q1R-11" value="写入实时配置表" style="rounded=1;whiteSpace=wrap;html=1;" parent="1" vertex="1">
          <mxGeometry x="-500" y="620" width="120" height="40" as="geometry" />
        </mxCell>
        <mxCell id="dYjJuQr_pZlBkOYd_q1R-13" value="删除灰度配置和灰度发布数据" style="rounded=1;whiteSpace=wrap;html=1;" parent="1" vertex="1">
          <mxGeometry x="-310" y="630" width="120" height="40" as="geometry" />
        </mxCell>
        <mxCell id="IOC5wvjOlO7gnGzA3t1X-7" style="edgeStyle=orthogonalEdgeStyle;rounded=0;orthogonalLoop=1;jettySize=auto;html=1;entryX=0.5;entryY=0;entryDx=0;entryDy=0;" parent="1" edge="1">
          <mxGeometry relative="1" as="geometry">
            <mxPoint x="-440" y="555" as="sourcePoint" />
            <mxPoint x="-610" y="615" as="targetPoint" />
            <Array as="points">
              <mxPoint x="-440" y="595" />
              <mxPoint x="-610" y="595" />
            </Array>
          </mxGeometry>
        </mxCell>
        <mxCell id="IOC5wvjOlO7gnGzA3t1X-8" style="edgeStyle=orthogonalEdgeStyle;rounded=0;orthogonalLoop=1;jettySize=auto;html=1;entryX=0.5;entryY=0;entryDx=0;entryDy=0;" parent="1" source="IOC5wvjOlO7gnGzA3t1X-2" target="dYjJuQr_pZlBkOYd_q1R-11" edge="1">
          <mxGeometry relative="1" as="geometry" />
        </mxCell>
        <mxCell id="IOC5wvjOlO7gnGzA3t1X-12" style="edgeStyle=orthogonalEdgeStyle;rounded=0;orthogonalLoop=1;jettySize=auto;html=1;" parent="1" source="IOC5wvjOlO7gnGzA3t1X-2" target="IOC5wvjOlO7gnGzA3t1X-11" edge="1">
          <mxGeometry relative="1" as="geometry" />
        </mxCell>
        <mxCell id="IOC5wvjOlO7gnGzA3t1X-13" value="是" style="edgeLabel;html=1;align=center;verticalAlign=middle;resizable=0;points=[];" parent="IOC5wvjOlO7gnGzA3t1X-12" vertex="1" connectable="0">
          <mxGeometry x="-0.2083" y="1" relative="1" as="geometry">
            <mxPoint as="offset" />
          </mxGeometry>
        </mxCell>
        <mxCell id="IOC5wvjOlO7gnGzA3t1X-2" value="是否开启工单" style="rhombus;whiteSpace=wrap;html=1;" parent="1" vertex="1">
          <mxGeometry x="-480" y="480" width="80" height="80" as="geometry" />
        </mxCell>
        <mxCell id="IOC5wvjOlO7gnGzA3t1X-9" style="edgeStyle=orthogonalEdgeStyle;rounded=0;orthogonalLoop=1;jettySize=auto;html=1;entryX=0.5;entryY=0;entryDx=0;entryDy=0;exitX=0.5;exitY=1;exitDx=0;exitDy=0;" parent="1" source="IOC5wvjOlO7gnGzA3t1X-2" target="dYjJuQr_pZlBkOYd_q1R-13" edge="1">
          <mxGeometry relative="1" as="geometry">
            <mxPoint x="-250" y="560" as="sourcePoint" />
          </mxGeometry>
        </mxCell>
        <mxCell id="IOC5wvjOlO7gnGzA3t1X-10" value="否" style="edgeLabel;html=1;align=center;verticalAlign=middle;resizable=0;points=[];" parent="IOC5wvjOlO7gnGzA3t1X-9" vertex="1" connectable="0">
          <mxGeometry x="-0.9256" y="-1" relative="1" as="geometry">
            <mxPoint as="offset" />
          </mxGeometry>
        </mxCell>
        <mxCell id="IOC5wvjOlO7gnGzA3t1X-14" style="edgeStyle=orthogonalEdgeStyle;rounded=0;orthogonalLoop=1;jettySize=auto;html=1;" parent="1" edge="1">
          <mxGeometry relative="1" as="geometry">
            <mxPoint x="-250" y="630" as="targetPoint" />
            <mxPoint x="-300" y="535" as="sourcePoint" />
            <Array as="points">
              <mxPoint x="-300" y="595" />
              <mxPoint x="-250" y="595" />
            </Array>
          </mxGeometry>
        </mxCell>
        <mxCell id="IOC5wvjOlO7gnGzA3t1X-11" value="云工单" style="shape=process;whiteSpace=wrap;html=1;backgroundOutline=1;" parent="1" vertex="1">
          <mxGeometry x="-350" y="500" width="100" height="40" as="geometry" />
        </mxCell>
        <mxCell id="3qJPJ0p830aMWVGbC03R-9" style="edgeStyle=none;rounded=0;orthogonalLoop=1;jettySize=auto;html=1;" edge="1" parent="1" source="3qJPJ0p830aMWVGbC03R-4" target="3qJPJ0p830aMWVGbC03R-8">
          <mxGeometry relative="1" as="geometry" />
        </mxCell>
        <mxCell id="3qJPJ0p830aMWVGbC03R-4" value="env1" style="rounded=1;whiteSpace=wrap;html=1;" vertex="1" parent="1">
          <mxGeometry x="-440" y="980" width="110" height="40" as="geometry" />
        </mxCell>
        <mxCell id="3qJPJ0p830aMWVGbC03R-12" style="edgeStyle=none;rounded=0;orthogonalLoop=1;jettySize=auto;html=1;entryX=0.5;entryY=0;entryDx=0;entryDy=0;exitX=0.5;exitY=1;exitDx=0;exitDy=0;" edge="1" parent="1" source="3qJPJ0p830aMWVGbC03R-5" target="3qJPJ0p830aMWVGbC03R-10">
          <mxGeometry relative="1" as="geometry" />
        </mxCell>
        <mxCell id="3qJPJ0p830aMWVGbC03R-13" style="edgeStyle=none;rounded=0;orthogonalLoop=1;jettySize=auto;html=1;entryX=0.5;entryY=0;entryDx=0;entryDy=0;" edge="1" parent="1" source="3qJPJ0p830aMWVGbC03R-5" target="3qJPJ0p830aMWVGbC03R-11">
          <mxGeometry relative="1" as="geometry" />
        </mxCell>
        <mxCell id="3qJPJ0p830aMWVGbC03R-5" value="env2" style="rounded=1;whiteSpace=wrap;html=1;" vertex="1" parent="1">
          <mxGeometry x="-230" y="980" width="110" height="40" as="geometry" />
        </mxCell>
        <mxCell id="3qJPJ0p830aMWVGbC03R-8" value="version1" style="rounded=1;whiteSpace=wrap;html=1;" vertex="1" parent="1">
          <mxGeometry x="-440" y="1070" width="110" height="40" as="geometry" />
        </mxCell>
        <mxCell id="3qJPJ0p830aMWVGbC03R-10" value="version1" style="rounded=1;whiteSpace=wrap;html=1;" vertex="1" parent="1">
          <mxGeometry x="-280" y="1070" width="110" height="40" as="geometry" />
        </mxCell>
        <mxCell id="3qJPJ0p830aMWVGbC03R-11" value="version2" style="rounded=1;whiteSpace=wrap;html=1;" vertex="1" parent="1">
          <mxGeometry x="-140" y="1070" width="110" height="40" as="geometry" />
        </mxCell>
        <mxCell id="3qJPJ0p830aMWVGbC03R-15" value="" style="rounded=0;whiteSpace=wrap;html=1;gradientColor=none;fillColor=none;dashed=1;strokeColor=default;" vertex="1" parent="1">
          <mxGeometry x="-480" y="1230" width="480" height="90" as="geometry" />
        </mxCell>
        <mxCell id="3qJPJ0p830aMWVGbC03R-22" style="edgeStyle=none;rounded=0;orthogonalLoop=1;jettySize=auto;html=1;exitX=0.5;exitY=0;exitDx=0;exitDy=0;entryX=0.5;entryY=1;entryDx=0;entryDy=0;" edge="1" parent="1" source="3qJPJ0p830aMWVGbC03R-16" target="3qJPJ0p830aMWVGbC03R-8">
          <mxGeometry relative="1" as="geometry" />
        </mxCell>
        <mxCell id="3qJPJ0p830aMWVGbC03R-16" value="group1" style="rounded=1;whiteSpace=wrap;html=1;strokeColor=default;fillColor=none;gradientColor=none;" vertex="1" parent="1">
          <mxGeometry x="-470" y="1260" width="100" height="40" as="geometry" />
        </mxCell>
        <mxCell id="3qJPJ0p830aMWVGbC03R-23" style="edgeStyle=none;rounded=0;orthogonalLoop=1;jettySize=auto;html=1;exitX=0.5;exitY=0;exitDx=0;exitDy=0;entryX=0.5;entryY=1;entryDx=0;entryDy=0;" edge="1" parent="1" source="3qJPJ0p830aMWVGbC03R-17" target="3qJPJ0p830aMWVGbC03R-8">
          <mxGeometry relative="1" as="geometry" />
        </mxCell>
        <mxCell id="3qJPJ0p830aMWVGbC03R-17" value="group2" style="rounded=1;whiteSpace=wrap;html=1;strokeColor=default;fillColor=none;gradientColor=none;" vertex="1" parent="1">
          <mxGeometry x="-350" y="1260" width="95" height="40" as="geometry" />
        </mxCell>
        <mxCell id="3qJPJ0p830aMWVGbC03R-25" style="edgeStyle=none;rounded=0;orthogonalLoop=1;jettySize=auto;html=1;exitX=0.5;exitY=0;exitDx=0;exitDy=0;entryX=0.5;entryY=1;entryDx=0;entryDy=0;" edge="1" parent="1" source="3qJPJ0p830aMWVGbC03R-18" target="3qJPJ0p830aMWVGbC03R-11">
          <mxGeometry relative="1" as="geometry" />
        </mxCell>
        <mxCell id="3qJPJ0p830aMWVGbC03R-18" value="group4" style="rounded=1;whiteSpace=wrap;html=1;strokeColor=default;fillColor=none;gradientColor=none;" vertex="1" parent="1">
          <mxGeometry x="-110" y="1260" width="100" height="40" as="geometry" />
        </mxCell>
        <mxCell id="3qJPJ0p830aMWVGbC03R-24" style="edgeStyle=none;rounded=0;orthogonalLoop=1;jettySize=auto;html=1;entryX=0.5;entryY=1;entryDx=0;entryDy=0;" edge="1" parent="1" source="3qJPJ0p830aMWVGbC03R-19" target="3qJPJ0p830aMWVGbC03R-10">
          <mxGeometry relative="1" as="geometry" />
        </mxCell>
        <mxCell id="3qJPJ0p830aMWVGbC03R-19" value="group3" style="rounded=1;whiteSpace=wrap;html=1;strokeColor=default;fillColor=none;gradientColor=none;" vertex="1" parent="1">
          <mxGeometry x="-230" y="1260" width="100" height="40" as="geometry" />
        </mxCell>
        <mxCell id="3qJPJ0p830aMWVGbC03R-26" value="配置中心" style="text;html=1;strokeColor=none;fillColor=none;align=center;verticalAlign=middle;whiteSpace=wrap;rounded=0;" vertex="1" parent="1">
          <mxGeometry x="-570" y="1000" width="60" height="30" as="geometry" />
        </mxCell>
        <mxCell id="3qJPJ0p830aMWVGbC03R-27" value="持续部署" style="text;html=1;strokeColor=none;fillColor=none;align=center;verticalAlign=middle;whiteSpace=wrap;rounded=0;" vertex="1" parent="1">
          <mxGeometry x="-570" y="1260" width="60" height="30" as="geometry" />
        </mxCell>
        <mxCell id="3qJPJ0p830aMWVGbC03R-30" value="APP" style="text;html=1;strokeColor=none;fillColor=none;align=center;verticalAlign=middle;whiteSpace=wrap;rounded=0;" vertex="1" parent="1">
          <mxGeometry x="-350" y="890" width="60" height="30" as="geometry" />
        </mxCell>
        <mxCell id="3qJPJ0p830aMWVGbC03R-32" value="Product/Service/APP&lt;br&gt;公共配置" style="text;html=1;strokeColor=none;fillColor=none;align=center;verticalAlign=middle;whiteSpace=wrap;rounded=0;dashed=1;" vertex="1" parent="1">
          <mxGeometry x="260" y="1000" width="60" height="30" as="geometry" />
        </mxCell>
        <mxCell id="3qJPJ0p830aMWVGbC03R-38" style="edgeStyle=none;rounded=0;orthogonalLoop=1;jettySize=auto;html=1;entryX=0.5;entryY=0;entryDx=0;entryDy=0;" edge="1" parent="1" source="3qJPJ0p830aMWVGbC03R-34" target="3qJPJ0p830aMWVGbC03R-37">
          <mxGeometry relative="1" as="geometry" />
        </mxCell>
        <mxCell id="3qJPJ0p830aMWVGbC03R-34" value="Namespace.Product.A" style="rounded=1;whiteSpace=wrap;html=1;strokeColor=default;fillColor=none;gradientColor=none;" vertex="1" parent="1">
          <mxGeometry x="450" y="955" width="160" height="35" as="geometry" />
        </mxCell>
        <mxCell id="3qJPJ0p830aMWVGbC03R-42" style="edgeStyle=none;rounded=0;orthogonalLoop=1;jettySize=auto;html=1;entryX=0.5;entryY=0;entryDx=0;entryDy=0;exitX=0.5;exitY=1;exitDx=0;exitDy=0;" edge="1" parent="1" source="3qJPJ0p830aMWVGbC03R-35" target="3qJPJ0p830aMWVGbC03R-39">
          <mxGeometry relative="1" as="geometry" />
        </mxCell>
        <mxCell id="3qJPJ0p830aMWVGbC03R-43" style="edgeStyle=none;rounded=0;orthogonalLoop=1;jettySize=auto;html=1;entryX=0.5;entryY=0;entryDx=0;entryDy=0;exitX=0.5;exitY=1;exitDx=0;exitDy=0;" edge="1" parent="1" source="3qJPJ0p830aMWVGbC03R-35" target="3qJPJ0p830aMWVGbC03R-40">
          <mxGeometry relative="1" as="geometry" />
        </mxCell>
        <mxCell id="3qJPJ0p830aMWVGbC03R-35" value="Namespace.Product.B" style="rounded=1;whiteSpace=wrap;html=1;strokeColor=default;fillColor=none;gradientColor=none;" vertex="1" parent="1">
          <mxGeometry x="740" y="955" width="160" height="35" as="geometry" />
        </mxCell>
        <mxCell id="3qJPJ0p830aMWVGbC03R-37" value="version1" style="rounded=1;whiteSpace=wrap;html=1;strokeColor=default;fillColor=none;gradientColor=none;" vertex="1" parent="1">
          <mxGeometry x="450" y="1040" width="160" height="30" as="geometry" />
        </mxCell>
        <mxCell id="3qJPJ0p830aMWVGbC03R-39" value="version1" style="rounded=1;whiteSpace=wrap;html=1;strokeColor=default;fillColor=none;gradientColor=none;" vertex="1" parent="1">
          <mxGeometry x="650" y="1040" width="160" height="30" as="geometry" />
        </mxCell>
        <mxCell id="3qJPJ0p830aMWVGbC03R-40" value="version2" style="rounded=1;whiteSpace=wrap;html=1;strokeColor=default;fillColor=none;gradientColor=none;" vertex="1" parent="1">
          <mxGeometry x="840" y="1040" width="160" height="30" as="geometry" />
        </mxCell>
        <mxCell id="3qJPJ0p830aMWVGbC03R-46" value="APP" style="text;html=1;strokeColor=none;fillColor=none;align=center;verticalAlign=middle;whiteSpace=wrap;rounded=0;dashed=1;" vertex="1" parent="1">
          <mxGeometry x="240" y="1225" width="60" height="30" as="geometry" />
        </mxCell>
        <mxCell id="3qJPJ0p830aMWVGbC03R-62" style="edgeStyle=none;rounded=0;orthogonalLoop=1;jettySize=auto;html=1;exitX=0.5;exitY=0;exitDx=0;exitDy=0;entryX=0.5;entryY=1;entryDx=0;entryDy=0;" edge="1" parent="1" source="3qJPJ0p830aMWVGbC03R-51" target="3qJPJ0p830aMWVGbC03R-37">
          <mxGeometry relative="1" as="geometry" />
        </mxCell>
        <mxCell id="3qJPJ0p830aMWVGbC03R-63" style="edgeStyle=none;rounded=0;orthogonalLoop=1;jettySize=auto;html=1;entryX=0.5;entryY=1;entryDx=0;entryDy=0;exitX=0.5;exitY=0;exitDx=0;exitDy=0;" edge="1" parent="1" source="3qJPJ0p830aMWVGbC03R-51" target="3qJPJ0p830aMWVGbC03R-39">
          <mxGeometry relative="1" as="geometry" />
        </mxCell>
        <mxCell id="3qJPJ0p830aMWVGbC03R-51" value="version1" style="rounded=1;whiteSpace=wrap;html=1;" vertex="1" parent="1">
          <mxGeometry x="540" y="1200" width="110" height="40" as="geometry" />
        </mxCell>
        <mxCell id="3qJPJ0p830aMWVGbC03R-64" style="edgeStyle=none;rounded=0;orthogonalLoop=1;jettySize=auto;html=1;entryX=0.5;entryY=1;entryDx=0;entryDy=0;exitX=0.5;exitY=0;exitDx=0;exitDy=0;" edge="1" parent="1" source="3qJPJ0p830aMWVGbC03R-52" target="3qJPJ0p830aMWVGbC03R-37">
          <mxGeometry relative="1" as="geometry" />
        </mxCell>
        <mxCell id="3qJPJ0p830aMWVGbC03R-65" style="edgeStyle=none;rounded=0;orthogonalLoop=1;jettySize=auto;html=1;entryX=0.5;entryY=1;entryDx=0;entryDy=0;exitX=0.5;exitY=0;exitDx=0;exitDy=0;" edge="1" parent="1" source="3qJPJ0p830aMWVGbC03R-52" target="3qJPJ0p830aMWVGbC03R-40">
          <mxGeometry relative="1" as="geometry" />
        </mxCell>
        <mxCell id="3qJPJ0p830aMWVGbC03R-52" value="version2" style="rounded=1;whiteSpace=wrap;html=1;" vertex="1" parent="1">
          <mxGeometry x="705" y="1200" width="110" height="40" as="geometry" />
        </mxCell>
        <mxCell id="3qJPJ0p830aMWVGbC03R-55" style="edgeStyle=none;rounded=0;orthogonalLoop=1;jettySize=auto;html=1;exitX=0.5;exitY=0;exitDx=0;exitDy=0;entryX=0.891;entryY=0.125;entryDx=0;entryDy=0;entryPerimeter=0;" edge="1" parent="1" source="3qJPJ0p830aMWVGbC03R-53" target="3qJPJ0p830aMWVGbC03R-53">
          <mxGeometry relative="1" as="geometry" />
        </mxCell>
        <mxCell id="3qJPJ0p830aMWVGbC03R-59" style="edgeStyle=none;rounded=0;orthogonalLoop=1;jettySize=auto;html=1;entryX=0.5;entryY=1;entryDx=0;entryDy=0;exitX=0.5;exitY=0;exitDx=0;exitDy=0;" edge="1" parent="1" source="3qJPJ0p830aMWVGbC03R-53" target="3qJPJ0p830aMWVGbC03R-51">
          <mxGeometry relative="1" as="geometry" />
        </mxCell>
        <mxCell id="3qJPJ0p830aMWVGbC03R-53" value="env" style="rounded=1;whiteSpace=wrap;html=1;" vertex="1" parent="1">
          <mxGeometry x="620" y="1270" width="110" height="40" as="geometry" />
        </mxCell>
        <mxCell id="3qJPJ0p830aMWVGbC03R-60" style="edgeStyle=none;rounded=0;orthogonalLoop=1;jettySize=auto;html=1;entryX=0.55;entryY=0.938;entryDx=0;entryDy=0;entryPerimeter=0;exitX=0.5;exitY=0;exitDx=0;exitDy=0;" edge="1" parent="1" source="3qJPJ0p830aMWVGbC03R-53" target="3qJPJ0p830aMWVGbC03R-52">
          <mxGeometry relative="1" as="geometry" />
        </mxCell>
        <mxCell id="3qJPJ0p830aMWVGbC03R-66" value="" style="rounded=0;whiteSpace=wrap;html=1;strokeColor=default;fillColor=none;gradientColor=none;" vertex="1" parent="1">
          <mxGeometry x="-627.5" y="1524" width="650" height="446" as="geometry" />
        </mxCell>
        <mxCell id="3qJPJ0p830aMWVGbC03R-67" value="" style="rounded=0;whiteSpace=wrap;html=1;gradientColor=none;fillColor=none;dashed=1;strokeColor=default;" vertex="1" parent="1">
          <mxGeometry x="-487.5" y="1594" width="407.5" height="190" as="geometry" />
        </mxCell>
        <mxCell id="3qJPJ0p830aMWVGbC03R-68" style="edgeStyle=none;rounded=0;orthogonalLoop=1;jettySize=auto;html=1;" edge="1" parent="1" source="3qJPJ0p830aMWVGbC03R-69" target="3qJPJ0p830aMWVGbC03R-73">
          <mxGeometry relative="1" as="geometry" />
        </mxCell>
        <mxCell id="3qJPJ0p830aMWVGbC03R-69" value="env1" style="rounded=1;whiteSpace=wrap;html=1;" vertex="1" parent="1">
          <mxGeometry x="-447.5" y="1624" width="110" height="40" as="geometry" />
        </mxCell>
        <mxCell id="3qJPJ0p830aMWVGbC03R-73" value="version1" style="rounded=1;whiteSpace=wrap;html=1;" vertex="1" parent="1">
          <mxGeometry x="-447.5" y="1714" width="110" height="40" as="geometry" />
        </mxCell>
        <mxCell id="3qJPJ0p830aMWVGbC03R-76" value="" style="rounded=0;whiteSpace=wrap;html=1;gradientColor=none;fillColor=none;dashed=1;strokeColor=default;" vertex="1" parent="1">
          <mxGeometry x="-487.5" y="1854" width="397.5" height="90" as="geometry" />
        </mxCell>
        <mxCell id="3qJPJ0p830aMWVGbC03R-94" style="edgeStyle=none;rounded=0;orthogonalLoop=1;jettySize=auto;html=1;exitX=0.5;exitY=0;exitDx=0;exitDy=0;entryX=0.5;entryY=1;entryDx=0;entryDy=0;" edge="1" parent="1" source="3qJPJ0p830aMWVGbC03R-78" target="3qJPJ0p830aMWVGbC03R-73">
          <mxGeometry relative="1" as="geometry" />
        </mxCell>
        <mxCell id="3qJPJ0p830aMWVGbC03R-78" value="group1" style="rounded=1;whiteSpace=wrap;html=1;strokeColor=default;fillColor=none;gradientColor=none;" vertex="1" parent="1">
          <mxGeometry x="-442.5" y="1884" width="100" height="40" as="geometry" />
        </mxCell>
        <mxCell id="3qJPJ0p830aMWVGbC03R-95" style="edgeStyle=none;rounded=0;orthogonalLoop=1;jettySize=auto;html=1;exitX=0.5;exitY=0;exitDx=0;exitDy=0;entryX=0.5;entryY=1;entryDx=0;entryDy=0;" edge="1" parent="1" source="3qJPJ0p830aMWVGbC03R-84" target="3qJPJ0p830aMWVGbC03R-89">
          <mxGeometry relative="1" as="geometry" />
        </mxCell>
        <mxCell id="3qJPJ0p830aMWVGbC03R-84" value="gray group1" style="rounded=1;whiteSpace=wrap;html=1;strokeColor=default;fillColor=none;gradientColor=none;" vertex="1" parent="1">
          <mxGeometry x="-212.5" y="1884" width="100" height="40" as="geometry" />
        </mxCell>
        <mxCell id="3qJPJ0p830aMWVGbC03R-85" value="配置中心" style="text;html=1;strokeColor=none;fillColor=none;align=center;verticalAlign=middle;whiteSpace=wrap;rounded=0;" vertex="1" parent="1">
          <mxGeometry x="-577.5" y="1644" width="60" height="30" as="geometry" />
        </mxCell>
        <mxCell id="3qJPJ0p830aMWVGbC03R-86" value="持续部署" style="text;html=1;strokeColor=none;fillColor=none;align=center;verticalAlign=middle;whiteSpace=wrap;rounded=0;" vertex="1" parent="1">
          <mxGeometry x="-577.5" y="1884" width="60" height="30" as="geometry" />
        </mxCell>
        <mxCell id="3qJPJ0p830aMWVGbC03R-87" value="APP" style="text;html=1;strokeColor=none;fillColor=none;align=center;verticalAlign=middle;whiteSpace=wrap;rounded=0;" vertex="1" parent="1">
          <mxGeometry x="-357.5" y="1534" width="60" height="30" as="geometry" />
        </mxCell>
        <mxCell id="3qJPJ0p830aMWVGbC03R-90" style="edgeStyle=none;rounded=0;orthogonalLoop=1;jettySize=auto;html=1;" edge="1" parent="1" source="3qJPJ0p830aMWVGbC03R-88" target="3qJPJ0p830aMWVGbC03R-89">
          <mxGeometry relative="1" as="geometry" />
        </mxCell>
        <mxCell id="3qJPJ0p830aMWVGbC03R-88" value="gray env1" style="rounded=1;whiteSpace=wrap;html=1;" vertex="1" parent="1">
          <mxGeometry x="-217.5" y="1624" width="110" height="40" as="geometry" />
        </mxCell>
        <mxCell id="3qJPJ0p830aMWVGbC03R-89" value="gray version1" style="rounded=1;whiteSpace=wrap;html=1;" vertex="1" parent="1">
          <mxGeometry x="-217.5" y="1714" width="110" height="40" as="geometry" />
        </mxCell>
        <mxCell id="3qJPJ0p830aMWVGbC03R-91" value="" style="shape=flexArrow;endArrow=classic;html=1;rounded=0;exitX=0.389;exitY=0.505;exitDx=0;exitDy=0;exitPerimeter=0;entryX=0.632;entryY=0.505;entryDx=0;entryDy=0;entryPerimeter=0;" edge="1" parent="1" source="3qJPJ0p830aMWVGbC03R-67" target="3qJPJ0p830aMWVGbC03R-67">
          <mxGeometry width="50" height="50" relative="1" as="geometry">
            <mxPoint x="-340" y="1730" as="sourcePoint" />
            <mxPoint x="-290" y="1690" as="targetPoint" />
            <Array as="points">
              <mxPoint x="-310" y="1690" />
            </Array>
          </mxGeometry>
        </mxCell>
        <mxCell id="3qJPJ0p830aMWVGbC03R-96" value="" style="shape=flexArrow;endArrow=classic;html=1;rounded=0;exitX=0.389;exitY=0.505;exitDx=0;exitDy=0;exitPerimeter=0;entryX=0.632;entryY=0.505;entryDx=0;entryDy=0;entryPerimeter=0;" edge="1" parent="1">
          <mxGeometry width="50" height="50" relative="1" as="geometry">
            <mxPoint x="-329.0225000000001" y="1903.58" as="sourcePoint" />
            <mxPoint x="-230.00000000000003" y="1903.58" as="targetPoint" />
            <Array as="points">
              <mxPoint x="-310.04" y="1903.63" />
            </Array>
          </mxGeometry>
        </mxCell>
        <mxCell id="3qJPJ0p830aMWVGbC03R-97" value="" style="rounded=0;whiteSpace=wrap;html=1;dashed=1;strokeColor=default;fillColor=none;gradientColor=none;" vertex="1" parent="1">
          <mxGeometry x="430" y="1510" width="200" height="700" as="geometry" />
        </mxCell>
        <mxCell id="3qJPJ0p830aMWVGbC03R-98" value="" style="rounded=0;whiteSpace=wrap;html=1;dashed=1;strokeColor=default;fillColor=none;gradientColor=none;" vertex="1" parent="1">
          <mxGeometry x="680" y="1510" width="180" height="700" as="geometry" />
        </mxCell>
        <mxCell id="3qJPJ0p830aMWVGbC03R-99" value="持续部署" style="text;html=1;strokeColor=none;fillColor=none;align=center;verticalAlign=middle;whiteSpace=wrap;rounded=0;dashed=1;" vertex="1" parent="1">
          <mxGeometry x="495" y="1470" width="60" height="30" as="geometry" />
        </mxCell>
        <mxCell id="3qJPJ0p830aMWVGbC03R-100" value="配置中心" style="text;html=1;strokeColor=none;fillColor=none;align=center;verticalAlign=middle;whiteSpace=wrap;rounded=0;dashed=1;" vertex="1" parent="1">
          <mxGeometry x="740" y="1470" width="60" height="30" as="geometry" />
        </mxCell>
        <mxCell id="3qJPJ0p830aMWVGbC03R-109" style="edgeStyle=none;rounded=0;orthogonalLoop=1;jettySize=auto;html=1;entryX=0;entryY=0.5;entryDx=0;entryDy=0;" edge="1" parent="1" source="3qJPJ0p830aMWVGbC03R-101" target="3qJPJ0p830aMWVGbC03R-102">
          <mxGeometry relative="1" as="geometry" />
        </mxCell>
        <mxCell id="3qJPJ0p830aMWVGbC03R-116" style="edgeStyle=none;rounded=0;orthogonalLoop=1;jettySize=auto;html=1;" edge="1" parent="1" source="3qJPJ0p830aMWVGbC03R-101">
          <mxGeometry relative="1" as="geometry">
            <mxPoint x="530" y="1640" as="targetPoint" />
          </mxGeometry>
        </mxCell>
        <mxCell id="3qJPJ0p830aMWVGbC03R-101" value="部署变更" style="rounded=1;whiteSpace=wrap;html=1;strokeColor=default;fillColor=none;gradientColor=none;" vertex="1" parent="1">
          <mxGeometry x="470" y="1560" width="120" height="40" as="geometry" />
        </mxCell>
        <mxCell id="3qJPJ0p830aMWVGbC03R-113" style="edgeStyle=none;rounded=0;orthogonalLoop=1;jettySize=auto;html=1;entryX=0;entryY=0.5;entryDx=0;entryDy=0;" edge="1" parent="1" source="3qJPJ0p830aMWVGbC03R-102" target="3qJPJ0p830aMWVGbC03R-112">
          <mxGeometry relative="1" as="geometry" />
        </mxCell>
        <mxCell id="3qJPJ0p830aMWVGbC03R-102" value="生成配置快照&lt;br&gt;(快照名snapshotxxx)" style="rounded=1;whiteSpace=wrap;html=1;strokeColor=default;fillColor=none;gradientColor=none;" vertex="1" parent="1">
          <mxGeometry x="715" y="1560" width="120" height="40" as="geometry" />
        </mxCell>
        <mxCell id="3qJPJ0p830aMWVGbC03R-104" value="env.sh" style="text;html=1;strokeColor=none;fillColor=none;align=center;verticalAlign=middle;whiteSpace=wrap;rounded=0;" vertex="1" parent="1">
          <mxGeometry x="210" y="1714" width="60" height="30" as="geometry" />
        </mxCell>
        <mxCell id="3qJPJ0p830aMWVGbC03R-105" value="env1" style="text;html=1;strokeColor=none;fillColor=none;align=center;verticalAlign=middle;whiteSpace=wrap;rounded=0;" vertex="1" parent="1">
          <mxGeometry x="700" y="1524" width="60" height="30" as="geometry" />
        </mxCell>
        <mxCell id="3qJPJ0p830aMWVGbC03R-107" value="version1" style="text;html=1;strokeColor=none;fillColor=none;align=center;verticalAlign=middle;whiteSpace=wrap;rounded=0;" vertex="1" parent="1">
          <mxGeometry x="775" y="1524" width="60" height="30" as="geometry" />
        </mxCell>
        <mxCell id="3qJPJ0p830aMWVGbC03R-112" value="上传OCS" style="shape=process;whiteSpace=wrap;html=1;backgroundOutline=1;strokeColor=default;fillColor=none;gradientColor=none;" vertex="1" parent="1">
          <mxGeometry x="910" y="1550" width="120" height="60" as="geometry" />
        </mxCell>
        <mxCell id="3qJPJ0p830aMWVGbC03R-124" style="edgeStyle=none;rounded=0;orthogonalLoop=1;jettySize=auto;html=1;entryX=0.5;entryY=0;entryDx=0;entryDy=0;" edge="1" parent="1" source="3qJPJ0p830aMWVGbC03R-114" target="3qJPJ0p830aMWVGbC03R-123">
          <mxGeometry relative="1" as="geometry" />
        </mxCell>
        <mxCell id="3qJPJ0p830aMWVGbC03R-114" value="生成环境变量" style="rounded=1;whiteSpace=wrap;html=1;strokeColor=default;fillColor=none;gradientColor=none;" vertex="1" parent="1">
          <mxGeometry x="470" y="1714" width="120" height="40" as="geometry" />
        </mxCell>
        <mxCell id="3qJPJ0p830aMWVGbC03R-117" value="step1" style="text;html=1;strokeColor=none;fillColor=none;align=center;verticalAlign=middle;whiteSpace=wrap;rounded=0;" vertex="1" parent="1">
          <mxGeometry x="625" y="1553" width="60" height="30" as="geometry" />
        </mxCell>
        <mxCell id="3qJPJ0p830aMWVGbC03R-118" value="step2" style="text;html=1;strokeColor=none;fillColor=none;align=center;verticalAlign=middle;whiteSpace=wrap;rounded=0;" vertex="1" parent="1">
          <mxGeometry x="530" y="1610" width="60" height="30" as="geometry" />
        </mxCell>
        <mxCell id="3qJPJ0p830aMWVGbC03R-127" style="edgeStyle=none;rounded=0;orthogonalLoop=1;jettySize=auto;html=1;" edge="1" parent="1" source="3qJPJ0p830aMWVGbC03R-123" target="3qJPJ0p830aMWVGbC03R-126">
          <mxGeometry relative="1" as="geometry" />
        </mxCell>
        <mxCell id="3qJPJ0p830aMWVGbC03R-139" style="edgeStyle=none;rounded=0;orthogonalLoop=1;jettySize=auto;html=1;entryX=1;entryY=0.5;entryDx=0;entryDy=0;dashed=1;" edge="1" parent="1" source="3qJPJ0p830aMWVGbC03R-123" target="3qJPJ0p830aMWVGbC03R-137">
          <mxGeometry relative="1" as="geometry" />
        </mxCell>
        <mxCell id="3qJPJ0p830aMWVGbC03R-123" value="写入env.sh" style="rounded=1;whiteSpace=wrap;html=1;strokeColor=default;fillColor=none;gradientColor=none;" vertex="1" parent="1">
          <mxGeometry x="470" y="1794" width="120" height="40" as="geometry" />
        </mxCell>
        <mxCell id="3qJPJ0p830aMWVGbC03R-125" value="step4" style="text;html=1;strokeColor=none;fillColor=none;align=center;verticalAlign=middle;whiteSpace=wrap;rounded=0;" vertex="1" parent="1">
          <mxGeometry x="520" y="1760" width="60" height="30" as="geometry" />
        </mxCell>
        <mxCell id="3qJPJ0p830aMWVGbC03R-130" style="edgeStyle=none;rounded=0;orthogonalLoop=1;jettySize=auto;html=1;entryX=0.5;entryY=0;entryDx=0;entryDy=0;" edge="1" parent="1" source="3qJPJ0p830aMWVGbC03R-126">
          <mxGeometry relative="1" as="geometry">
            <mxPoint x="530" y="1960" as="targetPoint" />
          </mxGeometry>
        </mxCell>
        <mxCell id="3qJPJ0p830aMWVGbC03R-126" value="执行start脚本&lt;br&gt;(source env.sh)" style="rounded=1;whiteSpace=wrap;html=1;strokeColor=default;fillColor=none;gradientColor=none;" vertex="1" parent="1">
          <mxGeometry x="470" y="1874" width="120" height="40" as="geometry" />
        </mxCell>
        <mxCell id="3qJPJ0p830aMWVGbC03R-128" value="step5" style="text;html=1;strokeColor=none;fillColor=none;align=center;verticalAlign=middle;whiteSpace=wrap;rounded=0;" vertex="1" parent="1">
          <mxGeometry x="520" y="1836" width="60" height="30" as="geometry" />
        </mxCell>
        <mxCell id="3qJPJ0p830aMWVGbC03R-131" value="step6" style="text;html=1;strokeColor=none;fillColor=none;align=center;verticalAlign=middle;whiteSpace=wrap;rounded=0;" vertex="1" parent="1">
          <mxGeometry x="520" y="1924" width="60" height="30" as="geometry" />
        </mxCell>
        <mxCell id="3qJPJ0p830aMWVGbC03R-143" style="edgeStyle=none;rounded=0;orthogonalLoop=1;jettySize=auto;html=1;exitX=0.5;exitY=1;exitDx=0;exitDy=0;entryX=0.5;entryY=0;entryDx=0;entryDy=0;" edge="1" parent="1" source="3qJPJ0p830aMWVGbC03R-132" target="3qJPJ0p830aMWVGbC03R-142">
          <mxGeometry relative="1" as="geometry" />
        </mxCell>
        <mxCell id="3qJPJ0p830aMWVGbC03R-132" value="" style="rounded=1;whiteSpace=wrap;html=1;strokeColor=default;fillColor=none;gradientColor=none;dashed=1;" vertex="1" parent="1">
          <mxGeometry x="450" y="1960" width="160" height="150" as="geometry" />
        </mxCell>
        <mxCell id="3qJPJ0p830aMWVGbC03R-133" value="SDK拉取配置" style="text;html=1;strokeColor=none;fillColor=none;align=center;verticalAlign=middle;whiteSpace=wrap;rounded=0;dashed=1;" vertex="1" parent="1">
          <mxGeometry x="441" y="1937" width="80" height="30" as="geometry" />
        </mxCell>
        <mxCell id="3qJPJ0p830aMWVGbC03R-136" style="edgeStyle=none;rounded=0;orthogonalLoop=1;jettySize=auto;html=1;entryX=0.5;entryY=0;entryDx=0;entryDy=0;" edge="1" parent="1" source="3qJPJ0p830aMWVGbC03R-134" target="3qJPJ0p830aMWVGbC03R-135">
          <mxGeometry relative="1" as="geometry" />
        </mxCell>
        <mxCell id="3qJPJ0p830aMWVGbC03R-134" value="读取环境变量" style="rounded=1;whiteSpace=wrap;html=1;strokeColor=default;fillColor=none;gradientColor=none;" vertex="1" parent="1">
          <mxGeometry x="470" y="1980" width="120" height="40" as="geometry" />
        </mxCell>
        <mxCell id="3qJPJ0p830aMWVGbC03R-141" style="edgeStyle=none;rounded=0;orthogonalLoop=1;jettySize=auto;html=1;entryX=0;entryY=0.5;entryDx=0;entryDy=0;" edge="1" parent="1" source="3qJPJ0p830aMWVGbC03R-135" target="3qJPJ0p830aMWVGbC03R-140">
          <mxGeometry relative="1" as="geometry" />
        </mxCell>
        <mxCell id="3qJPJ0p830aMWVGbC03R-135" value="下载配置" style="rounded=1;whiteSpace=wrap;html=1;strokeColor=default;fillColor=none;gradientColor=none;" vertex="1" parent="1">
          <mxGeometry x="470" y="2060" width="120" height="30" as="geometry" />
        </mxCell>
        <mxCell id="3qJPJ0p830aMWVGbC03R-137" value="&lt;div style=&quot;text-align: left;&quot;&gt;......&lt;/div&gt;&lt;div style=&quot;text-align: left;&quot;&gt;&lt;span style=&quot;background-color: initial;&quot;&gt;heracles_appId=appName&lt;/span&gt;&lt;/div&gt;&lt;div style=&quot;text-align: left;&quot;&gt;&lt;span style=&quot;background-color: initial;&quot;&gt;heracles_env=envName&lt;span style=&quot;&quot;&gt;	&lt;/span&gt;&lt;/span&gt;&lt;/div&gt;&lt;div style=&quot;text-align: left;&quot;&gt;heracles_version=version&lt;br&gt;heracles_secretKey=xxx&lt;br&gt;&lt;/div&gt;&lt;div style=&quot;text-align: left;&quot;&gt;heracles_conf_host=xxx&lt;br&gt;&lt;/div&gt;&lt;div style=&quot;text-align: left;&quot;&gt;......&lt;/div&gt;" style="shape=document;whiteSpace=wrap;html=1;boundedLbl=1;strokeColor=default;fillColor=none;gradientColor=none;" vertex="1" parent="1">
          <mxGeometry x="210" y="1750" width="160" height="126" as="geometry" />
        </mxCell>
        <mxCell id="3qJPJ0p830aMWVGbC03R-140" value="download API" style="rounded=1;whiteSpace=wrap;html=1;strokeColor=default;fillColor=none;gradientColor=none;" vertex="1" parent="1">
          <mxGeometry x="710" y="2060" width="120" height="30" as="geometry" />
        </mxCell>
        <mxCell id="3qJPJ0p830aMWVGbC03R-142" value="业务进程读取配置" style="rounded=1;whiteSpace=wrap;html=1;strokeColor=default;fillColor=none;gradientColor=none;" vertex="1" parent="1">
          <mxGeometry x="470" y="2147" width="120" height="40" as="geometry" />
        </mxCell>
        <mxCell id="3qJPJ0p830aMWVGbC03R-144" value="step7" style="text;html=1;strokeColor=none;fillColor=none;align=center;verticalAlign=middle;whiteSpace=wrap;rounded=0;" vertex="1" parent="1">
          <mxGeometry x="525" y="2117" width="60" height="30" as="geometry" />
        </mxCell>
        <mxCell id="3qJPJ0p830aMWVGbC03R-146" style="edgeStyle=none;rounded=0;orthogonalLoop=1;jettySize=auto;html=1;" edge="1" parent="1" source="3qJPJ0p830aMWVGbC03R-145" target="3qJPJ0p830aMWVGbC03R-114">
          <mxGeometry relative="1" as="geometry" />
        </mxCell>
        <mxCell id="3qJPJ0p830aMWVGbC03R-145" value="保存配置快照和部署版本映射关系" style="rounded=1;whiteSpace=wrap;html=1;strokeColor=default;fillColor=none;gradientColor=none;" vertex="1" parent="1">
          <mxGeometry x="470" y="1640" width="120" height="40" as="geometry" />
        </mxCell>
        <mxCell id="3qJPJ0p830aMWVGbC03R-147" value="step3" style="text;html=1;strokeColor=none;fillColor=none;align=center;verticalAlign=middle;whiteSpace=wrap;rounded=0;" vertex="1" parent="1">
          <mxGeometry x="521" y="1684" width="60" height="30" as="geometry" />
        </mxCell>
        <mxCell id="3qJPJ0p830aMWVGbC03R-148" value="group1" style="text;html=1;strokeColor=none;fillColor=none;align=center;verticalAlign=middle;whiteSpace=wrap;rounded=0;" vertex="1" parent="1">
          <mxGeometry x="505" y="1534" width="60" height="30" as="geometry" />
        </mxCell>
        <mxCell id="3qJPJ0p830aMWVGbC03R-149" value="" style="rounded=0;whiteSpace=wrap;html=1;dashed=1;strokeColor=default;fillColor=none;gradientColor=none;" vertex="1" parent="1">
          <mxGeometry x="1305" y="1530" width="200" height="700" as="geometry" />
        </mxCell>
        <mxCell id="3qJPJ0p830aMWVGbC03R-150" value="" style="rounded=0;whiteSpace=wrap;html=1;dashed=1;strokeColor=default;fillColor=none;gradientColor=none;" vertex="1" parent="1">
          <mxGeometry x="1555" y="1530" width="180" height="700" as="geometry" />
        </mxCell>
        <mxCell id="3qJPJ0p830aMWVGbC03R-151" value="持续部署" style="text;html=1;strokeColor=none;fillColor=none;align=center;verticalAlign=middle;whiteSpace=wrap;rounded=0;dashed=1;" vertex="1" parent="1">
          <mxGeometry x="1370" y="1490" width="60" height="30" as="geometry" />
        </mxCell>
        <mxCell id="3qJPJ0p830aMWVGbC03R-152" value="配置中心" style="text;html=1;strokeColor=none;fillColor=none;align=center;verticalAlign=middle;whiteSpace=wrap;rounded=0;dashed=1;" vertex="1" parent="1">
          <mxGeometry x="1615" y="1490" width="60" height="30" as="geometry" />
        </mxCell>
        <mxCell id="3qJPJ0p830aMWVGbC03R-154" style="edgeStyle=none;rounded=0;orthogonalLoop=1;jettySize=auto;html=1;" edge="1" parent="1" source="3qJPJ0p830aMWVGbC03R-155">
          <mxGeometry relative="1" as="geometry">
            <mxPoint x="1405" y="1660" as="targetPoint" />
          </mxGeometry>
        </mxCell>
        <mxCell id="3qJPJ0p830aMWVGbC03R-155" value="回滚" style="rounded=1;whiteSpace=wrap;html=1;strokeColor=default;fillColor=none;gradientColor=none;" vertex="1" parent="1">
          <mxGeometry x="1345" y="1580" width="120" height="40" as="geometry" />
        </mxCell>
        <mxCell id="3qJPJ0p830aMWVGbC03R-158" value="env.sh" style="text;html=1;strokeColor=none;fillColor=none;align=center;verticalAlign=middle;whiteSpace=wrap;rounded=0;" vertex="1" parent="1">
          <mxGeometry x="1085" y="1734" width="60" height="30" as="geometry" />
        </mxCell>
        <mxCell id="3qJPJ0p830aMWVGbC03R-159" value="env1" style="text;html=1;strokeColor=none;fillColor=none;align=center;verticalAlign=middle;whiteSpace=wrap;rounded=0;" vertex="1" parent="1">
          <mxGeometry x="1575" y="1537" width="60" height="30" as="geometry" />
        </mxCell>
        <mxCell id="3qJPJ0p830aMWVGbC03R-160" value="version1" style="text;html=1;strokeColor=none;fillColor=none;align=center;verticalAlign=middle;whiteSpace=wrap;rounded=0;" vertex="1" parent="1">
          <mxGeometry x="1650" y="1536" width="60" height="30" as="geometry" />
        </mxCell>
        <mxCell id="3qJPJ0p830aMWVGbC03R-161" value="下载OCS" style="shape=process;whiteSpace=wrap;html=1;backgroundOutline=1;strokeColor=default;fillColor=none;gradientColor=none;" vertex="1" parent="1">
          <mxGeometry x="1790" y="2065" width="120" height="60" as="geometry" />
        </mxCell>
        <mxCell id="3qJPJ0p830aMWVGbC03R-162" style="edgeStyle=none;rounded=0;orthogonalLoop=1;jettySize=auto;html=1;entryX=0.5;entryY=0;entryDx=0;entryDy=0;" edge="1" parent="1" source="3qJPJ0p830aMWVGbC03R-163" target="3qJPJ0p830aMWVGbC03R-168">
          <mxGeometry relative="1" as="geometry" />
        </mxCell>
        <mxCell id="3qJPJ0p830aMWVGbC03R-163" value="生成环境变量" style="rounded=1;whiteSpace=wrap;html=1;strokeColor=default;fillColor=none;gradientColor=none;" vertex="1" parent="1">
          <mxGeometry x="1345" y="1734" width="120" height="40" as="geometry" />
        </mxCell>
        <mxCell id="3qJPJ0p830aMWVGbC03R-165" value="step1" style="text;html=1;strokeColor=none;fillColor=none;align=center;verticalAlign=middle;whiteSpace=wrap;rounded=0;" vertex="1" parent="1">
          <mxGeometry x="1405" y="1630" width="60" height="30" as="geometry" />
        </mxCell>
        <mxCell id="3qJPJ0p830aMWVGbC03R-166" style="edgeStyle=none;rounded=0;orthogonalLoop=1;jettySize=auto;html=1;" edge="1" parent="1" source="3qJPJ0p830aMWVGbC03R-168" target="3qJPJ0p830aMWVGbC03R-171">
          <mxGeometry relative="1" as="geometry" />
        </mxCell>
        <mxCell id="3qJPJ0p830aMWVGbC03R-167" style="edgeStyle=none;rounded=0;orthogonalLoop=1;jettySize=auto;html=1;entryX=1;entryY=0.5;entryDx=0;entryDy=0;dashed=1;" edge="1" parent="1" source="3qJPJ0p830aMWVGbC03R-168" target="3qJPJ0p830aMWVGbC03R-181">
          <mxGeometry relative="1" as="geometry" />
        </mxCell>
        <mxCell id="3qJPJ0p830aMWVGbC03R-168" value="写入env.sh" style="rounded=1;whiteSpace=wrap;html=1;strokeColor=default;fillColor=none;gradientColor=none;" vertex="1" parent="1">
          <mxGeometry x="1345" y="1814" width="120" height="40" as="geometry" />
        </mxCell>
        <mxCell id="3qJPJ0p830aMWVGbC03R-169" value="step3" style="text;html=1;strokeColor=none;fillColor=none;align=center;verticalAlign=middle;whiteSpace=wrap;rounded=0;" vertex="1" parent="1">
          <mxGeometry x="1395" y="1780" width="60" height="30" as="geometry" />
        </mxCell>
        <mxCell id="3qJPJ0p830aMWVGbC03R-170" style="edgeStyle=none;rounded=0;orthogonalLoop=1;jettySize=auto;html=1;entryX=0.5;entryY=0;entryDx=0;entryDy=0;" edge="1" parent="1" source="3qJPJ0p830aMWVGbC03R-171">
          <mxGeometry relative="1" as="geometry">
            <mxPoint x="1405" y="1980" as="targetPoint" />
          </mxGeometry>
        </mxCell>
        <mxCell id="3qJPJ0p830aMWVGbC03R-171" value="执行start脚本&lt;br&gt;(source env.sh)" style="rounded=1;whiteSpace=wrap;html=1;strokeColor=default;fillColor=none;gradientColor=none;" vertex="1" parent="1">
          <mxGeometry x="1345" y="1894" width="120" height="40" as="geometry" />
        </mxCell>
        <mxCell id="3qJPJ0p830aMWVGbC03R-172" value="step4" style="text;html=1;strokeColor=none;fillColor=none;align=center;verticalAlign=middle;whiteSpace=wrap;rounded=0;" vertex="1" parent="1">
          <mxGeometry x="1395" y="1856" width="60" height="30" as="geometry" />
        </mxCell>
        <mxCell id="3qJPJ0p830aMWVGbC03R-173" value="step5" style="text;html=1;strokeColor=none;fillColor=none;align=center;verticalAlign=middle;whiteSpace=wrap;rounded=0;" vertex="1" parent="1">
          <mxGeometry x="1395" y="1944" width="60" height="30" as="geometry" />
        </mxCell>
        <mxCell id="3qJPJ0p830aMWVGbC03R-174" style="edgeStyle=none;rounded=0;orthogonalLoop=1;jettySize=auto;html=1;exitX=0.5;exitY=1;exitDx=0;exitDy=0;entryX=0.5;entryY=0;entryDx=0;entryDy=0;" edge="1" parent="1" source="3qJPJ0p830aMWVGbC03R-175" target="3qJPJ0p830aMWVGbC03R-183">
          <mxGeometry relative="1" as="geometry" />
        </mxCell>
        <mxCell id="3qJPJ0p830aMWVGbC03R-175" value="" style="rounded=1;whiteSpace=wrap;html=1;strokeColor=default;fillColor=none;gradientColor=none;dashed=1;" vertex="1" parent="1">
          <mxGeometry x="1325" y="1980" width="160" height="150" as="geometry" />
        </mxCell>
        <mxCell id="3qJPJ0p830aMWVGbC03R-176" value="SDK拉取配置" style="text;html=1;strokeColor=none;fillColor=none;align=center;verticalAlign=middle;whiteSpace=wrap;rounded=0;dashed=1;" vertex="1" parent="1">
          <mxGeometry x="1316" y="1957" width="80" height="30" as="geometry" />
        </mxCell>
        <mxCell id="3qJPJ0p830aMWVGbC03R-177" style="edgeStyle=none;rounded=0;orthogonalLoop=1;jettySize=auto;html=1;entryX=0.5;entryY=0;entryDx=0;entryDy=0;" edge="1" parent="1" source="3qJPJ0p830aMWVGbC03R-178" target="3qJPJ0p830aMWVGbC03R-180">
          <mxGeometry relative="1" as="geometry" />
        </mxCell>
        <mxCell id="3qJPJ0p830aMWVGbC03R-178" value="读取环境变量" style="rounded=1;whiteSpace=wrap;html=1;strokeColor=default;fillColor=none;gradientColor=none;" vertex="1" parent="1">
          <mxGeometry x="1345" y="2000" width="120" height="40" as="geometry" />
        </mxCell>
        <mxCell id="3qJPJ0p830aMWVGbC03R-179" style="edgeStyle=none;rounded=0;orthogonalLoop=1;jettySize=auto;html=1;entryX=0;entryY=0.5;entryDx=0;entryDy=0;" edge="1" parent="1" source="3qJPJ0p830aMWVGbC03R-180" target="3qJPJ0p830aMWVGbC03R-182">
          <mxGeometry relative="1" as="geometry" />
        </mxCell>
        <mxCell id="3qJPJ0p830aMWVGbC03R-180" value="下载配置" style="rounded=1;whiteSpace=wrap;html=1;strokeColor=default;fillColor=none;gradientColor=none;" vertex="1" parent="1">
          <mxGeometry x="1345" y="2080" width="120" height="30" as="geometry" />
        </mxCell>
        <mxCell id="3qJPJ0p830aMWVGbC03R-181" value="&lt;div style=&quot;text-align: left;&quot;&gt;......&lt;/div&gt;&lt;div style=&quot;text-align: left;&quot;&gt;&lt;span style=&quot;background-color: initial;&quot;&gt;heracles_appId=appName&lt;/span&gt;&lt;/div&gt;&lt;div style=&quot;text-align: left;&quot;&gt;&lt;span style=&quot;background-color: initial;&quot;&gt;heracles_env=envName&lt;span style=&quot;&quot;&gt;	&lt;/span&gt;&lt;/span&gt;&lt;/div&gt;&lt;div style=&quot;text-align: left;&quot;&gt;&lt;b&gt;&lt;font color=&quot;#ff0000&quot;&gt;heracles_version=version:snapshotxxx&lt;/font&gt;&lt;/b&gt;&lt;br&gt;heracles_secretKey=xxx&lt;br&gt;&lt;/div&gt;&lt;div style=&quot;text-align: left;&quot;&gt;heracles_conf_host=xxx&lt;br&gt;&lt;/div&gt;&lt;div style=&quot;text-align: left;&quot;&gt;......&lt;/div&gt;" style="shape=document;whiteSpace=wrap;html=1;boundedLbl=1;strokeColor=default;fillColor=none;gradientColor=none;" vertex="1" parent="1">
          <mxGeometry x="1010" y="1770" width="235" height="126" as="geometry" />
        </mxCell>
        <mxCell id="3qJPJ0p830aMWVGbC03R-189" style="edgeStyle=none;rounded=0;orthogonalLoop=1;jettySize=auto;html=1;fontColor=#FF0000;" edge="1" parent="1" source="3qJPJ0p830aMWVGbC03R-182" target="3qJPJ0p830aMWVGbC03R-161">
          <mxGeometry relative="1" as="geometry" />
        </mxCell>
        <mxCell id="3qJPJ0p830aMWVGbC03R-182" value="download API" style="rounded=1;whiteSpace=wrap;html=1;strokeColor=default;fillColor=none;gradientColor=none;" vertex="1" parent="1">
          <mxGeometry x="1585" y="2080" width="120" height="30" as="geometry" />
        </mxCell>
        <mxCell id="3qJPJ0p830aMWVGbC03R-183" value="业务进程读取配置" style="rounded=1;whiteSpace=wrap;html=1;strokeColor=default;fillColor=none;gradientColor=none;" vertex="1" parent="1">
          <mxGeometry x="1345" y="2167" width="120" height="40" as="geometry" />
        </mxCell>
        <mxCell id="3qJPJ0p830aMWVGbC03R-184" value="step6" style="text;html=1;strokeColor=none;fillColor=none;align=center;verticalAlign=middle;whiteSpace=wrap;rounded=0;" vertex="1" parent="1">
          <mxGeometry x="1400" y="2137" width="60" height="30" as="geometry" />
        </mxCell>
        <mxCell id="3qJPJ0p830aMWVGbC03R-185" style="edgeStyle=none;rounded=0;orthogonalLoop=1;jettySize=auto;html=1;" edge="1" parent="1" source="3qJPJ0p830aMWVGbC03R-186" target="3qJPJ0p830aMWVGbC03R-163">
          <mxGeometry relative="1" as="geometry" />
        </mxCell>
        <mxCell id="3qJPJ0p830aMWVGbC03R-186" value="&lt;font color=&quot;#ff0000&quot;&gt;获取对应配置快照版本&lt;/font&gt;" style="rounded=1;whiteSpace=wrap;html=1;strokeColor=default;fillColor=none;gradientColor=none;" vertex="1" parent="1">
          <mxGeometry x="1345" y="1660" width="120" height="40" as="geometry" />
        </mxCell>
        <mxCell id="3qJPJ0p830aMWVGbC03R-187" value="step2" style="text;html=1;strokeColor=none;fillColor=none;align=center;verticalAlign=middle;whiteSpace=wrap;rounded=0;" vertex="1" parent="1">
          <mxGeometry x="1396" y="1704" width="60" height="30" as="geometry" />
        </mxCell>
        <mxCell id="3qJPJ0p830aMWVGbC03R-188" value="group1" style="text;html=1;strokeColor=none;fillColor=none;align=center;verticalAlign=middle;whiteSpace=wrap;rounded=0;" vertex="1" parent="1">
          <mxGeometry x="1380" y="1539" width="60" height="30" as="geometry" />
        </mxCell>
      </root>
    </mxGraphModel>
  </diagram>
</mxfile>
